# xmcd CD database file
#
# Track frame offsets:
#	150
#	47525
#	83032
#	133665
#	184372
#
# Disc length: 3061 seconds
#
# Revision: 0
# Processed by: cddbd v1.5.2PL0 Copyright (c) Steve Scherf et al.
# Submitted via: CDex 1.70beta2
#
DISCID=3c0bf305
DTITLE=渡辺貞夫 - Open Road [Disc 2]
DYEAR=1973
DGENRE=Jazz
TTITLE0=Echo
TTITLE1=Kaleidoscope
TTITLE2=Love Song
TTITLE3=Open Road
TTITLE4=Felicidade O Nosso Amor
EXTD=YEAR: 1973
EXTT0=
EXTT1=
EXTT2=
EXTT3=
EXTT4=
PLAYORDER=
